<svg width="45" height="64" viewBox="0 0 45 64" fill="none" xmlns="http://www.w3.org/2000/svg">
<path d="M26.1829 28.8496L28.9331 35.9999C29.5911 37.7108 29.9201 38.5662 30.4317 39.2858C30.8852 39.9235 31.4424 40.4807 32.0801 40.9341C32.7997 41.4458 33.6551 41.7748 35.366 42.4328L42.5163 45.1829L35.366 47.9331C33.6551 48.5911 32.7997 48.9201 32.0801 49.4317C31.4424 49.8852 30.8852 50.4424 30.4317 51.0801C29.9201 51.7997 29.5911 52.6551 28.9331 54.366L26.1829 61.5163L23.4328 54.366C22.7748 52.6551 22.4458 51.7997 21.9341 51.0801C21.4807 50.4424 20.9235 49.8852 20.2858 49.4317C19.5662 48.9201 18.7108 48.5911 16.9999 47.9331L9.84961 45.1829L16.9999 42.4328C18.7108 41.7748 19.5662 41.4458 20.2858 40.9341C20.9235 40.4807 21.4807 39.9235 21.9341 39.2858C22.4458 38.5662 22.7748 37.7108 23.4328 35.9999L26.1829 28.8496Z" stroke="#1D2939" stroke-width="3" stroke-linecap="round" stroke-linejoin="round"/>
<path d="M10.5 17L11.9818 19.9635C12.4832 20.9665 12.734 21.4679 13.0689 21.9025C13.3662 22.2881 13.7119 22.6338 14.0975 22.9311C14.5321 23.266 15.0335 23.5168 16.0365 24.0182L19 25.5L16.0365 26.9818C15.0335 27.4832 14.5321 27.734 14.0975 28.0689C13.7119 28.3662 13.3662 28.7119 13.0689 29.0975C12.734 29.5321 12.4832 30.0335 11.9818 31.0365L10.5 34L9.01825 31.0365C8.51677 30.0335 8.26603 29.5321 7.93105 29.0975C7.63381 28.7119 7.28812 28.3662 6.90251 28.0689C6.46795 27.734 5.96647 27.4832 4.96351 26.9818L2 25.5L4.96351 24.0182C5.96647 23.5168 6.46795 23.266 6.90251 22.9311C7.28812 22.6338 7.63381 22.2881 7.93105 21.9025C8.26603 21.4679 8.51677 20.9665 9.01825 19.9635L10.5 17Z" stroke="#1D2939" stroke-width="3" stroke-linecap="round" stroke-linejoin="round"/>
<path d="M23.5 2L24.6331 4.26621C25.0166 5.03318 25.2083 5.41667 25.4645 5.74898C25.6918 6.04386 25.9561 6.30821 26.251 6.53551C26.5833 6.79167 26.9668 6.98341 27.7338 7.36689L30 8.5L27.7338 9.6331C26.9668 10.0166 26.5833 10.2083 26.251 10.4645C25.9561 10.6918 25.6918 10.9561 25.4645 11.251C25.2083 11.5833 25.0166 11.9668 24.6331 12.7338L23.5 15L22.3669 12.7338C21.9834 11.9668 21.7917 11.5833 21.5355 11.251C21.3082 10.9561 21.0439 10.6918 20.749 10.4645C20.4167 10.2083 20.0332 10.0166 19.2662 9.6331L17 8.5L19.2662 7.36689C20.0332 6.98341 20.4167 6.79167 20.749 6.53551C21.0439 6.30821 21.3082 6.04386 21.5355 5.74898C21.7917 5.41667 21.9834 5.03318 22.3669 4.26621L23.5 2Z" stroke="#1D2939" stroke-width="3" stroke-linecap="round" stroke-linejoin="round"/>
</svg>
