<svg width="56" height="56" viewBox="0 0 56 56" fill="none" xmlns="http://www.w3.org/2000/svg">
<path d="M37.3337 42.0001L42.0003 46.6667L51.3337 37.3334M51.3337 23.3334H4.66699M51.3337 28.0001V19.1334C51.3337 16.5198 51.3337 15.2131 50.825 14.2148C50.3776 13.3367 49.6637 12.6228 48.7856 12.1754C47.7874 11.6667 46.4806 11.6667 43.867 11.6667H12.1337C9.52008 11.6667 8.21329 11.6667 7.21504 12.1754C6.33695 12.6228 5.62304 13.3367 5.17563 14.2148C4.66699 15.213 4.66699 16.5198 4.66699 19.1334V36.8667C4.66699 39.4803 4.66699 40.7871 5.17563 41.7854C5.62304 42.6635 6.33695 43.3774 7.21504 43.8248C8.21329 44.3334 9.52008 44.3334 12.1337 44.3334H28.0003" stroke="#1D2939" stroke-width="3" stroke-linecap="round" stroke-linejoin="round"/>
</svg>
