<svg width="56" height="56" viewBox="0 0 56 56" fill="none" xmlns="http://www.w3.org/2000/svg">
<path d="M46.6663 23.3334V15.8667C46.6663 11.9464 46.6663 9.9862 45.9034 8.48881C45.2323 7.17168 44.1614 6.10082 42.8443 5.4297C41.3469 4.66675 39.3867 4.66675 35.4663 4.66675H20.533C16.6126 4.66675 14.6525 4.66675 13.1551 5.4297C11.8379 6.10082 10.7671 7.17168 10.096 8.48881C9.33301 9.9862 9.33301 11.9464 9.33301 15.8667V40.1334C9.33301 44.0538 9.33301 46.014 10.096 47.5113C10.7671 48.8285 11.8379 49.8993 13.1551 50.5705C14.6525 51.3334 16.6126 51.3334 20.533 51.3334H24.4997M30.333 25.6667H18.6663M25.6663 35.0001H18.6663M37.333 16.3334H18.6663M44.9163 39.6667V35.5834C44.9163 33.3283 43.0882 31.5001 40.833 31.5001C38.5778 31.5001 36.7497 33.3283 36.7497 35.5834V39.6667M36.3997 49.0001H45.2663C46.5731 49.0001 47.2265 49.0001 47.7257 48.7458C48.1647 48.5221 48.5217 48.1651 48.7454 47.7261C48.9997 47.2269 48.9997 46.5735 48.9997 45.2667V43.4001C48.9997 42.0933 48.9997 41.4399 48.7454 40.9408C48.5217 40.5017 48.1647 40.1448 47.7257 39.9211C47.2265 39.6667 46.5731 39.6667 45.2663 39.6667H36.3997C35.0929 39.6667 34.4395 39.6667 33.9404 39.9211C33.5013 40.1448 33.1444 40.5017 32.9207 40.9408C32.6663 41.4399 32.6663 42.0933 32.6663 43.4001V45.2667C32.6663 46.5735 32.6663 47.2269 32.9207 47.7261C33.1444 48.1651 33.5013 48.5221 33.9404 48.7458C34.4395 49.0001 35.0929 49.0001 36.3997 49.0001Z" stroke="#1D2939" stroke-width="3" stroke-linecap="round" stroke-linejoin="round"/>
</svg>
