<svg width="56" height="56" viewBox="0 0 56 56" fill="none" xmlns="http://www.w3.org/2000/svg">
<path d="M46.6663 29.1667V15.8667C46.6663 11.9464 46.6663 9.9862 45.9034 8.48881C45.2323 7.17168 44.1614 6.10082 42.8443 5.4297C41.3469 4.66675 39.3867 4.66675 35.4663 4.66675H20.533C16.6126 4.66675 14.6525 4.66675 13.1551 5.4297C11.8379 6.10082 10.7671 7.17168 10.096 8.48881C9.33301 9.9862 9.33301 11.9464 9.33301 15.8667V40.1334C9.33301 44.0538 9.33301 46.014 10.096 47.5113C10.7671 48.8285 11.8379 49.8993 13.1551 50.5705C14.6525 51.3334 16.6126 51.3334 20.533 51.3334H27.9997M32.6663 25.6667H18.6663M23.333 35.0001H18.6663M37.333 16.3334H18.6663M33.833 44.3334L38.4997 49.0001L48.9997 38.5001" stroke="#1D2939" stroke-width="3" stroke-linecap="round" stroke-linejoin="round"/>
</svg>
