<svg width="56" height="56" viewBox="0 0 56 56" fill="none" xmlns="http://www.w3.org/2000/svg">
<path d="M19.6 7H10.7333C9.42654 7 8.77315 7 8.27402 7.25432C7.83498 7.47802 7.47802 7.83498 7.25432 8.27402C7 8.77315 7 9.42654 7 10.7333V19.6C7 20.9068 7 21.5602 7.25432 22.0593C7.47802 22.4984 7.83498 22.8553 8.27402 23.079C8.77315 23.3333 9.42654 23.3333 10.7333 23.3333H19.6C20.9068 23.3333 21.5602 23.3333 22.0593 23.079C22.4984 22.8553 22.8553 22.4984 23.079 22.0593C23.3333 21.5602 23.3333 20.9068 23.3333 19.6V10.7333C23.3333 9.42654 23.3333 8.77315 23.079 8.27402C22.8553 7.83498 22.4984 7.47802 22.0593 7.25432C21.5602 7 20.9068 7 19.6 7Z" stroke="#1D2939" stroke-width="3" stroke-linecap="round" stroke-linejoin="round"/>
<path d="M45.2667 7H36.4C35.0932 7 34.4398 7 33.9407 7.25432C33.5016 7.47802 33.1447 7.83498 32.921 8.27402C32.6667 8.77315 32.6667 9.42654 32.6667 10.7333V19.6C32.6667 20.9068 32.6667 21.5602 32.921 22.0593C33.1447 22.4984 33.5016 22.8553 33.9407 23.079C34.4398 23.3333 35.0932 23.3333 36.4 23.3333H45.2667C46.5735 23.3333 47.2269 23.3333 47.726 23.079C48.165 22.8553 48.522 22.4984 48.7457 22.0593C49 21.5602 49 20.9068 49 19.6V10.7333C49 9.42654 49 8.77315 48.7457 8.27402C48.522 7.83498 48.165 7.47802 47.726 7.25432C47.2269 7 46.5735 7 45.2667 7Z" stroke="#1D2939" stroke-width="3" stroke-linecap="round" stroke-linejoin="round"/>
<path d="M45.2667 32.6667H36.4C35.0932 32.6667 34.4398 32.6667 33.9407 32.921C33.5016 33.1447 33.1447 33.5016 32.921 33.9407C32.6667 34.4398 32.6667 35.0932 32.6667 36.4V45.2667C32.6667 46.5735 32.6667 47.2269 32.921 47.726C33.1447 48.165 33.5016 48.522 33.9407 48.7457C34.4398 49 35.0932 49 36.4 49H45.2667C46.5735 49 47.2269 49 47.726 48.7457C48.165 48.522 48.522 48.165 48.7457 47.726C49 47.2269 49 46.5735 49 45.2667V36.4C49 35.0932 49 34.4398 48.7457 33.9407C48.522 33.5016 48.165 33.1447 47.726 32.921C47.2269 32.6667 46.5735 32.6667 45.2667 32.6667Z" stroke="#1D2939" stroke-width="3" stroke-linecap="round" stroke-linejoin="round"/>
<path d="M19.6 32.6667H10.7333C9.42654 32.6667 8.77315 32.6667 8.27402 32.921C7.83498 33.1447 7.47802 33.5016 7.25432 33.9407C7 34.4398 7 35.0932 7 36.4V45.2667C7 46.5735 7 47.2269 7.25432 47.726C7.47802 48.165 7.83498 48.522 8.27402 48.7457C8.77315 49 9.42654 49 10.7333 49H19.6C20.9068 49 21.5602 49 22.0593 48.7457C22.4984 48.522 22.8553 48.165 23.079 47.726C23.3333 47.2269 23.3333 46.5735 23.3333 45.2667V36.4C23.3333 35.0932 23.3333 34.4398 23.079 33.9407C22.8553 33.5016 22.4984 33.1447 22.0593 32.921C21.5602 32.6667 20.9068 32.6667 19.6 32.6667Z" stroke="#1D2939" stroke-width="3" stroke-linecap="round" stroke-linejoin="round"/>
</svg>
