<svg width="56" height="56" viewBox="0 0 56 56" fill="none" xmlns="http://www.w3.org/2000/svg">
<path d="M26.371 50.4348C26.8876 50.7362 27.1459 50.8869 27.5104 50.965C27.7933 51.0257 28.206 51.0257 28.4889 50.965C28.8535 50.8869 29.1117 50.7362 29.6283 50.4348C34.1738 47.783 46.6663 39.4531 46.6663 28.0001V16.8412C46.6663 14.9756 46.6663 14.0429 46.3612 13.2411C46.0917 12.5328 45.6537 11.9008 45.0851 11.3997C44.4415 10.8325 43.5681 10.5049 41.8214 9.84992L29.3105 5.15834C28.8254 4.97644 28.5829 4.88548 28.3334 4.84943C28.1121 4.81744 27.8873 4.81744 27.666 4.84943C27.4164 4.88548 27.1739 4.97644 26.6888 5.15834L14.178 9.84992C12.4312 10.5049 11.5578 10.8325 10.9142 11.3997C10.3456 11.9008 9.90765 12.5328 9.63812 13.2411C9.33301 14.0429 9.33301 14.9756 9.33301 16.8412V28.0001C9.33301 39.4531 21.8256 47.783 26.371 50.4348Z" stroke="#1D2939" stroke-width="3" stroke-linecap="round" stroke-linejoin="round"/>
</svg>
