<svg width="56" height="56" viewBox="0 0 56 56" fill="none" xmlns="http://www.w3.org/2000/svg">
<path d="M14.0003 14.0001L24.5003 24.5001M14.0003 14.0001H7.00033L4.66699 7.00008L7.00033 4.66675L14.0003 7.00008V14.0001ZM44.938 6.39578L38.8069 12.5269C37.8828 13.4509 37.4208 13.9129 37.2477 14.4457C37.0954 14.9143 37.0954 15.4192 37.2477 15.8878C37.4208 16.4206 37.8828 16.8826 38.8069 17.8066L39.3605 18.3602C40.2845 19.2843 40.7465 19.7463 41.2793 19.9194C41.7479 20.0716 42.2527 20.0716 42.7214 19.9194C43.2541 19.7463 43.7162 19.2843 44.6402 18.3602L50.3753 12.6251C50.993 14.1281 51.3337 15.7743 51.3337 17.5001C51.3337 24.5877 45.588 30.3334 38.5003 30.3334C37.6458 30.3334 36.8109 30.2499 36.0031 30.0906C34.8688 29.8669 34.3016 29.755 33.9578 29.7893C33.5922 29.8257 33.4121 29.8805 33.0882 30.0538C32.7835 30.2169 32.4779 30.5225 31.8667 31.1337L15.167 47.8334C13.234 49.7664 10.1 49.7664 8.167 47.8334C6.234 45.9004 6.234 42.7664 8.167 40.8334L24.8667 24.1337C25.4779 23.5225 25.7835 23.2169 25.9466 22.9122C26.1199 22.5883 26.1747 22.4082 26.2111 22.0426C26.2454 21.6988 26.1335 21.1316 25.9098 19.9973C25.7505 19.1895 25.667 18.3546 25.667 17.5001C25.667 10.4124 31.4127 4.66675 38.5003 4.66675C40.8465 4.66675 43.0456 5.29633 44.938 6.39578ZM28.0004 35L40.8337 47.8332C42.7666 49.7661 45.9006 49.7661 47.8336 47.8332C49.7666 45.9002 49.7666 42.7661 47.8336 40.8332L37.2761 30.2758C36.5287 30.205 35.8 30.0702 35.0955 29.8769C34.1877 29.6277 33.1919 29.8085 32.5262 30.4742L28.0004 35Z" stroke="#1D2939" stroke-width="3" stroke-linecap="round" stroke-linejoin="round"/>
</svg>
