<svg width="56" height="56" viewBox="0 0 56 56" fill="none" xmlns="http://www.w3.org/2000/svg">
<path d="M37.3337 8.09144C40.791 9.80959 43.167 13.3773 43.167 17.5C43.167 21.6227 40.791 25.1904 37.3337 26.9086M42.0003 39.1216C45.5271 40.7175 48.7029 43.3183 51.3337 46.6667M4.66699 46.6667C9.2088 40.886 15.3751 37.3333 22.167 37.3333C28.9589 37.3333 35.1252 40.886 39.667 46.6667M32.667 17.5C32.667 23.299 27.966 28 22.167 28C16.368 28 11.667 23.299 11.667 17.5C11.667 11.701 16.368 7 22.167 7C27.966 7 32.667 11.701 32.667 17.5Z" stroke="#1D2939" stroke-width="3" stroke-linecap="round" stroke-linejoin="round"/>
</svg>
