<svg width="1440" height="1809" viewBox="0 0 1440 1809" fill="none" xmlns="http://www.w3.org/2000/svg">
<g opacity="0.34" filter="url(#filter0_f_333_229)">
<rect x="348" width="1092" height="1080" fill="#EFEBF4"/>
<path opacity="0.5" d="M282.5 795.475C321.5 543.404 150.5 381.735 -0.000329671 444.59V1447.27C-0.000329671 1447.27 -2.74069 1720.74 348.5 1728.24C699.74 1735.74 781.98 1543.81 783.74 1447.27C785.5 1350.74 793.671 1229.46 566.5 1151.96C339.329 1074.46 243.5 1047.54 282.5 795.475Z" fill="#1A45DF" fill-opacity="0.17"/>
<path d="M0 433.5V130.712V0H241C219.478 17.2935 127.5 73.6832 100 245.253C66.5891 453.701 0 433.5 0 433.5Z" fill="#B9C5EF"/>
<path d="M1148.15 814.613C1050.93 656.019 1331.26 414.871 1439.65 311L1439.65 814.613C1401.7 898.275 1245.38 973.208 1148.15 814.613Z" fill="#A69CE7" fill-opacity="0.3"/>
<path d="M775.157 521.563C677.934 362.969 792.312 172.989 1066.66 288.477C1341 403.965 1175.85 506.797 1103 560.586C1030.16 614.376 872.379 680.158 775.157 521.563Z" fill="#BD98F7" fill-opacity="0.63"/>
<path opacity="0.5" d="M301.144 1192.47C239.288 906.02 600 816.042 547.5 1035.42C495 1254.79 649.43 1377.01 615 1402.45C580.569 1427.88 362.999 1478.91 301.144 1192.47Z" fill="#EADCFF"/>
<path d="M143.856 718.381C177.098 555.924 85.0857 479.341 0 512.986V1080H419.288C419.288 1080 396.043 1044.87 439.902 1024.09C483.761 1003.31 483.322 904.417 351.746 902.87C187.276 900.936 99.1205 937.009 143.856 718.381Z" fill="#D7D9EE"/>
</g>
<defs>
<filter id="filter0_f_333_229" x="-80.001" y="-80" width="1600" height="1888.45" filterUnits="userSpaceOnUse" color-interpolation-filters="sRGB">
<feFlood flood-opacity="0" result="BackgroundImageFix"/>
<feBlend mode="normal" in="SourceGraphic" in2="BackgroundImageFix" result="shape"/>
<feGaussianBlur stdDeviation="40" result="effect1_foregroundBlur_333_229"/>
</filter>
</defs>
</svg>
