<svg width="1440" height="1889" viewBox="0 0 1440 1889" fill="none" xmlns="http://www.w3.org/2000/svg">
<g opacity="0.34" filter="url(#filter0_f_334_864)">
<rect x="348.001" y="80" width="1092" height="1080" fill="#EFEBF4"/>
<path opacity="0.5" d="M282.501 875.475C321.501 623.404 150.501 461.735 0.000646891 524.59V1527.27C0.000646891 1527.27 -2.73972 1800.74 348.501 1808.24C699.741 1815.74 781.981 1623.81 783.741 1527.27C785.501 1430.74 793.672 1309.46 566.501 1231.96C339.33 1154.46 243.501 1127.54 282.501 875.475Z" fill="#1A45DF" fill-opacity="0.17"/>
<path d="M0.000976562 513.5V210.712V80H241.001C219.479 97.2935 127.501 153.683 100.001 325.253C66.5901 533.701 0.000976562 513.5 0.000976562 513.5Z" fill="#B9C5EF"/>
<path d="M1148.15 894.613C1050.93 736.019 1331.27 494.871 1439.66 391L1439.66 894.613C1401.7 978.275 1245.38 1053.21 1148.15 894.613Z" fill="#A69CE7" fill-opacity="0.3"/>
<path d="M775.158 601.563C677.935 442.969 792.313 252.989 1066.66 368.477C1341 483.965 1175.85 586.797 1103 640.586C1030.16 694.376 872.38 760.158 775.158 601.563Z" fill="#BD98F7" fill-opacity="0.63"/>
<path opacity="0.5" d="M301.145 1272.47C239.289 986.02 600.001 896.042 547.501 1115.42C495 1334.79 649.431 1457.01 615.001 1482.45C580.57 1507.88 363 1558.91 301.145 1272.47Z" fill="#EADCFF"/>
<path d="M143.857 798.381C177.099 635.924 85.0867 559.341 0.000976562 592.986V1160H419.289C419.289 1160 396.044 1124.87 439.903 1104.09C483.762 1083.31 483.323 984.417 351.747 982.87C187.277 980.936 99.1215 1017.01 143.857 798.381Z" fill="#D7D9EE"/>
</g>
<defs>
<filter id="filter0_f_334_864" x="-80" y="0" width="1600" height="1888.45" filterUnits="userSpaceOnUse" color-interpolation-filters="sRGB">
<feFlood flood-opacity="0" result="BackgroundImageFix"/>
<feBlend mode="normal" in="SourceGraphic" in2="BackgroundImageFix" result="shape"/>
<feGaussianBlur stdDeviation="40" result="effect1_foregroundBlur_334_864"/>
</filter>
</defs>
</svg>
