<svg width="38" height="38" viewBox="0 0 38 38" fill="none" xmlns="http://www.w3.org/2000/svg">
<path d="M33.25 6.84559V31.1544C33.25 31.7102 33.0292 32.2432 32.6362 32.6362C32.2432 33.0292 31.7102 33.25 31.1544 33.25H6.84559C6.2898 33.25 5.75678 33.0292 5.36378 32.6362C4.97078 32.2432 4.75 31.7102 4.75 31.1544V6.84559C4.75 6.2898 4.97078 5.75678 5.36378 5.36378C5.75678 4.97078 6.2898 4.75 6.84559 4.75H31.1544C31.7102 4.75 32.2432 4.97078 32.6362 5.36378C33.0292 5.75678 33.25 6.2898 33.25 6.84559V6.84559ZM13.1324 15.6471H8.94118V29.0588H13.1324V15.6471ZM13.5096 11.0368C13.5118 10.7197 13.4515 10.4054 13.3322 10.1116C13.2129 9.8179 13.037 9.55053 12.8144 9.3248C12.5917 9.09907 12.3268 8.9194 12.0348 8.79605C11.7427 8.67269 11.4292 8.60808 11.1122 8.60588H11.0368C10.3921 8.60588 9.77375 8.86199 9.31787 9.31787C8.86199 9.77375 8.60588 10.3921 8.60588 11.0368C8.60588 11.6815 8.86199 12.2998 9.31787 12.7557C9.77375 13.2115 10.3921 13.4676 11.0368 13.4676V13.4676C11.3538 13.4754 11.6693 13.4207 11.9652 13.3065C12.2611 13.1924 12.5316 13.021 12.7612 12.8023C12.9908 12.5835 13.1751 12.3217 13.3035 12.0317C13.4319 11.7417 13.5019 11.4293 13.5096 11.1122V11.0368ZM29.0588 20.9112C29.0588 16.8793 26.4938 15.3118 23.9456 15.3118C23.1112 15.27 22.2805 15.4477 21.5363 15.8272C20.7921 16.2066 20.1603 16.7746 19.7041 17.4744H19.5868V15.6471H15.6471V29.0588H19.8382V21.9254C19.7777 21.1949 20.0078 20.4699 20.4786 19.908C20.9495 19.3461 21.623 18.9927 22.3529 18.9246H22.5122C23.845 18.9246 24.8341 19.7628 24.8341 21.8751V29.0588H29.0253L29.0588 20.9112Z" fill="#1C2939"/>
</svg>
