<svg width="165" height="24" viewBox="0 0 165 24" fill="none" xmlns="http://www.w3.org/2000/svg">
<path d="M33.9368 5.42121H42.6611C48.8716 5.42121 52.036 9.32453 52.036 13.954C52.036 19.4005 48.1323 23.0618 42.602 23.0618H33.9072V5.42121H33.9368ZM39.5558 19.098H41.9809C44.7609 19.098 46.1508 17.3732 46.1508 14.1053C46.1508 11.4124 45.0566 9.41531 41.9809 9.38505H39.5558V19.098Z" fill="#613FB0"/>
<path d="M59.9015 23.0617L55.1992 5.42116H61.0549C61.8238 9.32448 62.9476 14.5592 63.3912 18.0994H63.4503C64.101 14.4987 65.3135 9.35474 66.319 5.42116H71.3466C72.2929 9.20345 73.5351 14.4684 74.1857 17.9481H74.2448C74.7476 14.1961 75.8418 9.0219 76.5812 5.42116H82.1115L77.1135 23.0617H71.2579C70.3115 19.3702 69.1877 14.4986 68.5075 11.261H68.4483C67.8864 14.4684 66.7626 19.0979 65.7867 23.0617H59.9015Z" fill="#613FB0"/>
<path d="M100.981 16.0419H91.7539V18.9769H102.046L101.395 23.0618H86.2236V5.4212H101.454V9.50607H91.7539V11.957H100.981V16.0419Z" fill="#613FB0"/>
<path d="M106.722 5.42128H112.341V18.977H121.597L120.947 23.0619H106.722V5.42128Z" fill="#613FB0"/>
<path d="M125.556 5.42116H131.175V18.9769H140.431L139.781 23.0617H125.556V5.42116Z" fill="#613FB0"/>
<path d="M150.368 19.7939L149.273 23.0921H143.654L150.19 5.45148H157.495L164.445 23.0921H158.412L157.229 19.7939H150.368ZM155.927 15.709C154.804 12.5319 154.153 10.5349 153.709 9.05221H153.621C153.236 10.5046 152.497 13.016 151.551 15.709H155.927Z" fill="#613FB0"/>
<path d="M23.9844 23.0618H0V9.99023L12.007 0.700928L23.9844 9.99023V23.0618Z" fill="#613FB0"/>
</svg>
